<svg  xmlns="http://www.w3.org/2000/svg" xmlns:xlink="http://www.w3.org/1999/xlink" width="998" height="300" viewBox="0 0 1022 324"><path transform="translate(0 100)" d="M52.1,7.8L51.5,7.8L49.5,6.8Q48.5,5.7 48.3,4.1L47.9,-23.5L19.5,-23.3Q15.9,-23.4 15.3,-25.15Q14.7,-26.9 13.1,-58Q13.1,-60.4 14.8,-60.9Q16,-61.3 27.5,-61.3L47.4,-61.1L47.2,-74.8L48.1,-76.8Q49.5,-77.7 51.9,-77.7L53.8,-76.8Q54.8,-75.4 55,-73.8L55,-60.8L72.5,-60.9Q84,-60.9 85.75,-60.5Q87.5,-60.1 87.9,-56.7L86.3,-26.1Q85.7,-22.9 82.4,-22.9L55.6,-23.5L56,4.9L55,6.8Q53.8,7.8 52.1,7.8ZM79.1,-31L80.3,-52.8L55,-53.2L55.6,-31.2L79.1,-31ZM22.5,-31L47.9,-31.2L47.4,-53.4L20.7,-53.6L22.5,-31Z"></path><path transform="translate(100 100)" d="M18.8,8Q15,7.5 15,3.9L15,3.3L16,1.4Q22.9,-1.4 29,-5.7Q35.1,-10 39.45,-13.95Q43.8,-17.9 46.2,-21.4Q32.5,-33.2 23.8,-54.2L9.6,-54.2L7.6,-55.2Q6.6,-56.3 6.6,-58.7L7.6,-60.6L9.8,-61.9L42.1,-62.5L42.1,-73.4Q42.6,-77.1 46.1,-77.1L46.8,-77.1L48.7,-76.2L49.7,-74.2L49.7,-62.5Q59.9,-62.1 70.2,-61.8Q80.5,-61.5 90.4,-59.9Q91.4,-58.7 91.4,-56.3L90.4,-54.4Q88.4,-53.2 85.9,-53.2Q85,-53.2 84,-53.4L72.2,-54Q65.9,-32.7 56.5,-20.8Q59.3,-16.9 62.9,-14.35Q66.5,-11.8 69.55,-9.5Q72.6,-7.2 75.25,-5.65Q77.9,-4.1 82,-1.6Q83,-0.4 83,2L82,3.9Q80.8,5 79.1,5L78.1,4.9Q72.2,1.8 66.6,-2.3Q61,-6.4 51.3,-14.9Q46.8,-9.6 38.7,-3.55Q30.6,2.5 26.8,4.75Q23,7 18.8,8ZM51.5,-27.1L56.2,-33.3Q62,-47.4 64.4,-54.4L32.1,-54.6Q35.6,-46.8 39.95,-39.95Q44.3,-33.1 51.5,-27.1Z"></path><path transform="translate(200 100)" d="M12.8,6.8L12.1,6.8L10.2,5.9Q8.9,4 8.9,1.6Q8.9,1.4 8.95,0Q9,-1.4 9.4,-69.7Q9.4,-74.7 11,-74.8L87.7,-74.9Q90.8,-74.9 90.8,-71.6L89.7,2.6Q89.6,6.3 87.3,6.3Q86.4,6.3 85,5.6Q78.7,3.7 75.4,1.3Q74.3,0.1 74.3,-2.2L75.4,-4.2Q76.8,-5.2 79.1,-5.2L82,-3.8L83.2,-67L17,-66.4Q16.7,-18 16.7,-1.2Q16.7,2.6 15.6,5.9Q14.5,6.8 12.8,6.8ZM53.9,-11L53.2,-11L51.3,-12Q50.3,-13.4 50.1,-15.1Q50.3,-16.7 51.3,-17.9Q56.3,-23.1 60.1,-31.2Q57.9,-33.1 55.65,-34.95Q53.4,-36.8 51.7,-39.2L51.3,-41.1Q51.8,-44.8 56.2,-44.8L58.1,-43.8L64.2,-38Q66.7,-42.3 67.85,-47.25Q69,-52.2 71,-56.7Q72.2,-57.7 74.5,-57.7L76.6,-56.7Q77.5,-55.4 77.5,-53Q74.2,-39.2 70,-31.9L77.9,-24.3L78.1,-21.8L77.1,-19.8Q75.9,-18.8 73.5,-18.8L65.7,-24.9Q64,-20.8 57.3,-12.4Q55.9,-11 53.9,-11ZM26.3,-13.4L25.7,-13.4L23.6,-14.4Q22.7,-15.5 22.7,-17.9Q28.4,-25.2 33.1,-35.3Q31.5,-37.6 29.2,-39.75Q26.9,-41.9 26.5,-44.8Q27,-48.5 30.5,-48.5L31.2,-48.5L33.1,-47.6L37,-43.1Q38.2,-46.8 39.35,-50.5Q40.5,-54.2 41.9,-57.9Q43.1,-58.9 45.4,-58.9L47.4,-57.9Q48.3,-56.5 48.3,-54.8Q48.3,-52.8 45.6,-44.8L42.5,-35.4L47.8,-29.8Q49.1,-28.2 49.1,-25.7L48.1,-23.7Q47,-22.8 44.6,-22.8L42.5,-23.9L38.4,-28.2Q36,-24.7 34.05,-21Q32.1,-17.3 28.8,-14.2Q27.6,-13.4 26.3,-13.4Z"></path><path transform="translate(300 100)" d="M51.7,8.5Q48.9,7.9 46.95,5.85Q45,3.8 43.55,1.65Q42.1,-0.5 41.9,-3L42.9,-5Q44,-6 46.4,-6L48.5,-4.6L51.1,-1.7Q52.1,-5.8 52.85,-8.7Q53.6,-11.6 53.8,-16.1L20.1,-15.9Q16.4,-16.4 16.4,-20.6L17.4,-22.6Q18.8,-23.5 20.3,-23.7L53.4,-23.7Q52.6,-28.6 47.2,-31.9Q45.5,-33.6 45.5,-35Q45.5,-36.5 47.2,-37.6Q53.1,-41.9 56.9,-46L35.6,-46Q31.9,-46.5 31.9,-50.7L32.9,-52.6L34.9,-53.6Q48.7,-54.1 57.4,-54.1Q70.5,-54.1 72.2,-53Q73.2,-52.3 73.2,-51.4Q73.2,-49.8 70.3,-47.3L56.2,-34.5Q58.5,-31.7 59.65,-29.4Q60.8,-27.1 61,-23.7Q80.9,-23.5 83.6,-23.5Q86.3,-23.5 88.7,-22.4Q89.6,-21.2 89.6,-18.8L88.7,-16.9Q86.9,-15.6 84.7,-15.6Q83.6,-15.7 61.4,-16.1Q61,-9.3 59.75,-3.9Q58.5,1.5 56.05,4.9Q53.6,8.3 51.7,8.5ZM13.9,-46.6L13.3,-46.6L11.3,-47.6Q9.7,-51.7 9.7,-56.3Q9.7,-62.4 9.2,-66.5Q9.2,-69.5 14.3,-69.7L46.4,-68.8L46,-76.4L47,-78.3Q48.3,-79.3 50.7,-79.3L52.6,-78.3Q54,-74.3 54,-68.8Q79.5,-68.3 86.4,-68.3Q89.9,-68.3 91.65,-67.85Q93.4,-67.4 93.4,-65.3Q93.4,-64.4 92.8,-61.85Q92.2,-59.3 91.8,-55.3Q91.4,-51.3 90.2,-47.8Q89.1,-46.8 86.7,-46.8L84.8,-47.8Q83.6,-49.3 83.6,-51.3Q83.6,-51.7 85,-60.6L17.2,-61.7L17.8,-49.5L16.8,-47.6Q15.6,-46.6 13.9,-46.6Z"></path><path transform="translate(400 100)" d="M69.8,8.8L69.2,8.8L67.2,7.8Q66,5.5 66,2.6Q66,1.4 66.3,-0L66.3,-44L44.7,-43.6Q41.8,-43.6 39.5,-45.2Q38.5,-46.4 38.5,-48.7L39.5,-50.7Q40.8,-51.7 42.6,-51.7L66.5,-51.7L66.3,-73.6Q66.8,-77.4 70.4,-77.4Q70.9,-77.3 73,-76.4Q74.2,-75 74.2,-73L74.2,-52.1L89.6,-52.1L91.6,-51.1Q92.6,-49.9 92.6,-48.1Q92.5,-47.6 91.6,-45.6Q90.2,-44.6 88.6,-44.4L74,-44Q74,0.6 74.1,2.1Q74.1,5.2 72.8,7.8Q71.5,8.8 69.8,8.8ZM30.4,-61.3Q29.7,-61.3 28.8,-61.6L21.6,-67Q17.7,-68.8 17.7,-72.4L17.7,-73.2Q18.7,-75.5 21.6,-75.5L32.9,-66.9Q33.6,-66 33.6,-65Q33.6,-64.4 33.4,-63.7Q32.4,-61.3 30.4,-61.3ZM26.1,2.7Q22.1,2.4 22.1,-1.9L21.8,-44.1Q11,-43.7 9.9,-43.6Q8.4,-43.6 7.4,-44.6Q6.3,-46.1 6.3,-47.5Q6.3,-49.5 9,-50.8Q15.5,-51.2 19.5,-51.2Q26.5,-51.2 28.3,-49.4Q29.7,-48 29.7,-46.5Q29.7,-46.1 29.6,-45.8L28.9,-9.7Q32.6,-14.4 36.3,-14.4Q37.6,-14.4 38.9,-13.8Q39.9,-12.7 39.9,-11.2Q39.9,-9.4 36.7,-6.25Q33.5,-3.1 31,-0.4Q28.5,2.3 26.1,2.7Z"></path><path transform="translate(500 100)" d="M10.4,8.4Q6.9,7.6 6.9,4.8Q6.9,4 7.2,3.1Q8.5,1.8 10.1,0.6Q17,-6.2 21.25,-11.1Q25.5,-16 31.3,-22.1Q27.1,-36 25.4,-50L17.2,-48.4Q14.3,-47.3 11.5,-47.3Q9.1,-47.3 6.7,-48.2Q5.6,-49.5 5.6,-50.8Q5.6,-52.1 6.65,-53.25Q7.7,-54.4 9.3,-54.4Q12.9,-54.8 24.5,-56.6Q23.1,-64.5 23.05,-69.45Q23,-74.4 22.9,-77.6Q25.1,-80 26.6,-80Q28,-80 29.9,-78.1Q30,-75.1 30.15,-70.2Q30.3,-65.3 31.5,-58.8Q38.5,-59.2 45.3,-60.7Q48.7,-61.4 52.1,-61.9Q55,-60.6 55,-58.3Q55,-57.2 53.9,-56Q45.5,-52.9 32.5,-51.1Q32.9,-46.2 33.65,-42.35Q34.4,-38.5 35.9,-30.1Q37.9,-33.6 39.4,-36.5Q40.8,-41.2 44.9,-42.7Q47.9,-42.3 48.4,-39.5Q47.4,-36 45.6,-32.9Q43.5,-29 39.1,-20.4Q42.4,-13.6 44.35,-10.65Q46.3,-7.7 50,-4.3L50.7,-8.8Q51.1,-9.8 51.8,-10.4Q53.1,-11.6 54.3,-11.6Q55.6,-11.6 56.8,-10.4Q57.6,-9.7 57.9,-8.5Q57.1,-2.8 55.8,2.6Q54.3,6.2 51.8,6.2Q48.6,4.9 46.45,2.5Q44.3,0.1 40.75,-3.4Q37.2,-6.9 34.2,-14.7Q27.9,-7.3 20.75,0.4Q13.6,8.1 10.4,8.4ZM84.5,8.7Q82.8,8.7 80.5,7.4Q76.7,6 75.6,2.2Q76.4,-1.2 79.1,-1.2Q80,-1.2 81.2,-0.8L81.9,-0.1Q81.5,-37.7 81.3,-45.4Q80.4,-72.6 80.3,-77.6Q82.5,-80 84,-80Q85.6,-80 87.4,-77.8Q87.6,-72.2 87.8,-64.65Q88,-57.1 88.6,-40.1Q89,-29.9 89,-16Q89,-6.7 88.8,4.3Q87.6,8.7 84.5,8.7ZM66.4,-33.3Q64.4,-33.3 63.3,-36.1Q62.6,-46.2 62.55,-55.9Q62.5,-65.6 62.4,-75.1Q64.7,-77.4 65.9,-77.4Q67.1,-77.4 69.5,-75.2Q69.5,-58.5 70.2,-35.4Q69.6,-35 69.1,-34.4Q67.6,-33.3 66.4,-33.3ZM43.8,-63.6Q42.1,-63.6 39.8,-65.55Q37.5,-67.5 35.2,-69.6Q33.5,-71 33.5,-72.6Q33.5,-73.8 34.6,-75.1Q35.8,-76.2 37.1,-76.2Q38.5,-76.2 41.8,-73.3Q46.8,-70.1 47.8,-66.9Q47.8,-65.4 46.7,-64.5Q45.2,-63.6 43.8,-63.6Z"></path><path transform="translate(0 200)" d="M38.2,1.2L37.6,1.2L35.7,0.2Q33.3,-11.6 32.65,-23.7Q32,-35.8 31,-60.4Q11.9,-60.2 3.9,-59.1L2,-60.1Q1,-61.5 1,-63.3L1,-63.9L2,-65.8Q7.8,-67.6 14.2,-67.7Q20.6,-67.8 66.8,-68.9L69,-67.8Q70,-66.5 70,-64.6L70,-64.3L69,-62.3Q67.6,-61.3 66,-61.1L38.6,-60.4Q39.8,-23.9 42.1,-1.8L41.1,0.2Q40,1.2 38.2,1.2Z"></path><path transform="translate(63 200)" d="M45.9,-0.2L45.3,-0.2L43.3,-1.2Q42.2,-2.7 42.2,-4.9Q43.1,-8.3 43.2,-12Q43.3,-15.7 43.3,-19.4Q43.3,-27.3 38.1,-31.3Q36.5,-32.4 34.5,-32.4Q29.2,-32.4 23.9,-26.1Q16.4,-17 16.4,-11.1L16.4,-9.4Q16.4,-6.1 15.4,-3.3Q14.2,-2.3 12.5,-2.3L11.9,-2.3L9.9,-3.3Q8.4,-7.2 7.8,-11.6L5.6,-61.7Q6.1,-65.6 9.9,-65.6L10.5,-65.6L12.5,-64.6Q13.4,-63.5 13.4,-61.8L15,-27.2Q24.3,-40.1 33.6,-40.1Q35.6,-40.1 39.45,-39.3Q43.3,-38.5 46.05,-34.75Q48.8,-31 49.8,-27.6Q50.8,-24.2 50.8,-17.7Q50.8,-17.1 50.7,-13Q50.6,-8.9 50.4,-6.1Q50.2,-3.3 48.8,-1.2Q47.6,-0.2 45.9,-0.2Z"></path><path transform="translate(120 200)" d="M28.1,2.4Q23.1,2.4 19.2,0.7Q16.2,-0.6 12.6,-4Q9,-7.4 6.7,-13.1Q4.5,-18.3 4.5,-23.6Q4.5,-24.1 4.6,-27.15Q4.7,-30.2 6.25,-34.9Q7.8,-39.6 12.15,-44.4Q16.5,-49.2 22.3,-50.3Q26.4,-51 30.2,-51Q31.7,-51 35,-50.75Q38.3,-50.5 42.65,-45.55Q47,-40.6 49.25,-35Q51.5,-29.4 52.1,-23.5L52.1,-23Q52.1,-20.3 49.8,-20Q49.2,-19.9 46.5,-19.9Q38.5,-19.9 12.5,-20.8Q13.3,-16.9 14.75,-14.25Q16.2,-11.6 20.6,-8.2Q24.3,-5.2 28.4,-5.2Q29,-5.2 31.6,-5.45Q34.2,-5.7 37,-7.15Q39.8,-8.6 42.4,-10.5Q44,-12.6 46.3,-12.6L46.7,-12.6L48.6,-11.6Q49.6,-10.2 49.6,-8.4L49.6,-7.8L48.6,-5.9Q42.4,-0.6 37.1,1Q32.8,2.4 28.1,2.4ZM43.3,-27.8L42.2,-31.3Q36.7,-43.3 28.5,-43.3Q27.9,-43.3 25.55,-43Q23.2,-42.7 18.8,-39.65Q14.4,-36.6 12.5,-28.4L43.3,-27.8Z"></path><path transform="translate(177 200)" d=""></path><path transform="translate(207 200)" d="M12.9,-1.4L12.2,-1.4L10.3,-2.3Q8.4,-6.3 8.4,-10.9Q8.4,-15.5 7.1,-61.5Q7.2,-66.6 9.8,-67.1Q13.1,-67.7 19.8,-67.7Q23.2,-67.7 28.55,-67.55Q33.9,-67.4 42.4,-65.65Q50.9,-63.9 56.25,-59.25Q61.6,-54.6 62.5,-50.3Q63,-47.7 63,-45.2Q63,-43.7 62.65,-41.05Q62.3,-38.4 61.05,-36.05Q59.8,-33.7 53.2,-28.3Q46.6,-22.9 36.25,-22.15Q25.9,-21.4 15.6,-21.4L16.7,-4.3L15.8,-2.3Q14.6,-1.4 12.9,-1.4ZM15.4,-29.2Q29,-29.2 35.45,-29.8Q41.9,-30.4 47.8,-32.9L52.6,-37.4Q55.5,-40.1 55.5,-44.2Q55.5,-44.9 55.15,-47.8Q54.8,-50.7 49.9,-54.2Q41.7,-60 22.3,-60Q18.7,-60 14.8,-59.8L15.4,-29.2Z"></path><path transform="translate(274 200)" d="M11.2,-0.8L10.6,-0.8L8.6,-1.8Q6.9,-6.1 6.8,-11.3Q6.7,-16.5 6.3,-38Q6.8,-41.7 10.4,-41.7L11,-41.7L12.9,-40.7L13.9,-38.8L14.2,-24.6Q18.6,-29.8 23.4,-32.05Q28.2,-34.3 31.5,-34.75Q34.8,-35.2 41.6,-35.3L43.6,-34.3Q44.6,-33.1 44.6,-31.4L44.6,-30.8L43.6,-28.8Q37.2,-28.2 31,-26.65Q24.8,-25.1 20.8,-20.6Q16.8,-16.1 15.95,-13.25Q15.1,-10.4 15.1,-3.7L14.1,-1.8Q12.9,-0.8 11.2,-0.8Z"></path><path transform="translate(322 200)" d="M27,-0.6Q21.9,-1.4 17.15,-2.75Q12.4,-4.1 9.05,-7.95Q5.7,-11.8 5,-16.2Q4.4,-19.4 4.4,-22.7Q4.4,-23.9 4.6,-26.75Q4.8,-29.6 6.45,-33.3Q8.1,-37 12,-40.7Q15.9,-44.4 21.5,-46.3Q25.8,-47.7 30.2,-47.7Q31.4,-47.7 34.8,-47.35Q38.2,-47 43.45,-42Q48.7,-37 50.5,-32.5Q51.8,-29.2 51.8,-25.6Q51.8,-24.3 51.4,-21.1Q51,-17.9 49.65,-13.55Q48.3,-9.2 44.6,-5.5Q40.9,-1.8 36.3,-1.2Q31.7,-0.6 27,-0.6ZM30.7,-8.5Q35,-8.5 37.4,-9.4Q40.7,-11.6 41.9,-14.9Q43.9,-20.7 43.9,-24.3Q43.9,-25.9 43.55,-28.8Q43.2,-31.7 40.5,-34.85Q37.8,-38 35.1,-39.3Q32.7,-40.3 29.9,-40.3Q26.1,-40.3 23.1,-38.8Q15.2,-34.8 13.1,-28.8Q11.9,-25.6 11.9,-21.8Q11.9,-21.1 12.05,-18.4Q12.2,-15.7 14.9,-13.05Q17.6,-10.4 21.2,-9.5Q25.1,-8.5 30.7,-8.5Z"></path><path transform="translate(379 200)" d="M12.4,12.7Q9,12.3 6.5,9.65Q4,7 2.3,3.9Q0.6,0.8 0.3,-2.7Q0.4,-4.3 1.4,-5.5Q2.8,-6.4 4.5,-6.4Q5,-6.4 7.1,-5.5Q7.9,-3.1 8.65,-0.75Q9.4,1.6 11.6,3.3Q13.3,4.8 14.9,4.8Q17,4.8 19.2,2.3Q20.9,0.4 21.8,-2.4Q22.8,-5.8 22.8,-16.9Q22.8,-24.4 21.65,-30.4Q20.5,-36.4 20.3,-43.3L21.2,-45.2Q22.6,-46.2 24.4,-46.2L25,-46.2L26.9,-45.2Q27.9,-38.2 29.3,-31.2Q30.4,-25 30.4,-16.4Q30.4,-15.1 30.3,-9.2Q30.2,-3.3 28.95,0.5Q27.7,4.3 24.55,7.6Q21.4,10.9 18.55,11.8Q15.7,12.7 12.4,12.7ZM22.3,-49.5Q20,-49.9 18.15,-51.95Q16.3,-54 16.3,-56.7Q16.3,-57 16.4,-58.65Q16.5,-60.3 18.6,-62.2Q20.2,-63.7 22.1,-63.7Q25.2,-63.7 27.9,-60.9Q29.5,-59.1 29.5,-56.9Q29.5,-56.4 29.15,-54.65Q28.8,-52.9 27,-51.3Q25.2,-49.7 22.3,-49.5Z"></path><path transform="translate(417 200)" d="M28.1,2.4Q23.1,2.4 19.2,0.7Q16.2,-0.6 12.6,-4Q9,-7.4 6.7,-13.1Q4.5,-18.3 4.5,-23.6Q4.5,-24.1 4.6,-27.15Q4.7,-30.2 6.25,-34.9Q7.8,-39.6 12.15,-44.4Q16.5,-49.2 22.3,-50.3Q26.4,-51 30.2,-51Q31.7,-51 35,-50.75Q38.3,-50.5 42.65,-45.55Q47,-40.6 49.25,-35Q51.5,-29.4 52.1,-23.5L52.1,-23Q52.1,-20.3 49.8,-20Q49.2,-19.9 46.5,-19.9Q38.5,-19.9 12.5,-20.8Q13.3,-16.9 14.75,-14.25Q16.2,-11.6 20.6,-8.2Q24.3,-5.2 28.4,-5.2Q29,-5.2 31.6,-5.45Q34.2,-5.7 37,-7.15Q39.8,-8.6 42.4,-10.5Q44,-12.6 46.3,-12.6L46.7,-12.6L48.6,-11.6Q49.6,-10.2 49.6,-8.4L49.6,-7.8L48.6,-5.9Q42.4,-0.6 37.1,1Q32.8,2.4 28.1,2.4ZM43.3,-27.8L42.2,-31.3Q36.7,-43.3 28.5,-43.3Q27.9,-43.3 25.55,-43Q23.2,-42.7 18.8,-39.65Q14.4,-36.6 12.5,-28.4L43.3,-27.8Z"></path><path transform="translate(474 200)" d="M28.2,0.3Q17.9,0.3 11,-7.2Q7.7,-10.7 5.8,-15.2Q4,-19.2 4,-23.4Q4,-23.8 4.1,-26.3Q4.2,-28.8 5.75,-32.05Q7.3,-35.3 9.2,-38.15Q11.1,-41 14.7,-43.4Q18.3,-45.8 22.6,-47.3Q25.9,-48.4 29.5,-48.4Q30.6,-48.4 33.45,-48.15Q36.3,-47.9 40,-45.8Q41.3,-44.2 41.3,-42.4Q41.3,-42 40.4,-39.9Q39.2,-39 37.5,-39L36.8,-39Q33.6,-40.6 30.2,-40.6Q20.7,-40.6 15.9,-33.8Q11.9,-28.2 11.9,-23.2Q11.9,-22.3 12.15,-19.8Q12.4,-17.3 14.75,-14Q17.1,-10.7 20.1,-9.4Q24.3,-7.4 28.5,-7.4Q30,-7.4 32.25,-7.7Q34.5,-8 37.25,-9.6Q40,-11.2 43.1,-11.8L45,-10.7Q46,-9.6 46,-7.8L46,-7.2L44.7,-4.9Q36.5,0.3 28.2,0.3Z"></path><path transform="translate(522 200)" d="M33.3,-2Q25.8,-2 20,-10.4Q16.8,-14.9 15.9,-22.35Q15,-29.8 14.8,-37.4L3.9,-37Q0.2,-37.5 0.2,-41.2L0.2,-41.9L1.1,-43.8Q2.9,-45 5.1,-45L14.6,-45Q14.8,-48.1 14.9,-51.45Q15,-54.8 16.2,-57.5Q17.5,-58.5 19.3,-58.5L19.9,-58.5L21.8,-57.5Q23,-56 23,-53.9Q23,-53.1 22.8,-52.2L22.2,-44.8L39.4,-44.4L41.6,-43.3Q42.5,-41.9 42.5,-40.2Q42.5,-39.7 41.6,-37.6Q39.8,-36.4 37.5,-36.4L22.4,-37.2Q22.8,-29.4 23.5,-23.35Q24.2,-17.3 28.2,-13.1Q31.2,-9.8 33.5,-9.8Q34.2,-9.8 35.85,-10.55Q37.5,-11.3 41.4,-12.8L43.3,-11.8Q44.3,-10.4 44.3,-8.6L44.3,-8L43.3,-6.1Q38.6,-2 33.3,-2Z"></path><path transform="translate(570 200)" d=""></path><path transform="translate(600 200)" d="M13.8,0.4L13.2,0.4L11.2,-0.6Q8.7,-13 8.2,-26.1Q7.7,-39.2 6.6,-65.2Q7.1,-68.4 8.65,-68.85Q10.2,-69.3 13,-69.3L60.1,-69.3L62.1,-68.4Q63.1,-67.2 63.1,-65.4L63.1,-64.8L62.1,-62.9Q60.7,-61.9 59.1,-61.7L14.5,-61.7L15.3,-39.4L58,-38.4L59.9,-37.4Q60.9,-36.2 60.9,-34.5L60.9,-33.9L59.9,-31.9Q58.6,-31 56.9,-30.8L15.7,-31.7Q16.1,-20.2 16.7,-14.3Q17.3,-8.4 17.6,-2.5L16.7,-0.6Q15.5,0.4 13.8,0.4Z"></path><path transform="translate(666 200)" d="M27,-0.6Q21.9,-1.4 17.15,-2.75Q12.4,-4.1 9.05,-7.95Q5.7,-11.8 5,-16.2Q4.4,-19.4 4.4,-22.7Q4.4,-23.9 4.6,-26.75Q4.8,-29.6 6.45,-33.3Q8.1,-37 12,-40.7Q15.9,-44.4 21.5,-46.3Q25.8,-47.7 30.2,-47.7Q31.4,-47.7 34.8,-47.35Q38.2,-47 43.45,-42Q48.7,-37 50.5,-32.5Q51.8,-29.2 51.8,-25.6Q51.8,-24.3 51.4,-21.1Q51,-17.9 49.65,-13.55Q48.3,-9.2 44.6,-5.5Q40.9,-1.8 36.3,-1.2Q31.7,-0.6 27,-0.6ZM30.7,-8.5Q35,-8.5 37.4,-9.4Q40.7,-11.6 41.9,-14.9Q43.9,-20.7 43.9,-24.3Q43.9,-25.9 43.55,-28.8Q43.2,-31.7 40.5,-34.85Q37.8,-38 35.1,-39.3Q32.7,-40.3 29.9,-40.3Q26.1,-40.3 23.1,-38.8Q15.2,-34.8 13.1,-28.8Q11.9,-25.6 11.9,-21.8Q11.9,-21.1 12.05,-18.4Q12.2,-15.7 14.9,-13.05Q17.6,-10.4 21.2,-9.5Q25.1,-8.5 30.7,-8.5Z"></path><path transform="translate(723 200)" d="M11.2,-0.8L10.6,-0.8L8.6,-1.8Q6.9,-6.1 6.8,-11.3Q6.7,-16.5 6.3,-38Q6.8,-41.7 10.4,-41.7L11,-41.7L12.9,-40.7L13.9,-38.8L14.2,-24.6Q18.6,-29.8 23.4,-32.05Q28.2,-34.3 31.5,-34.75Q34.8,-35.2 41.6,-35.3L43.6,-34.3Q44.6,-33.1 44.6,-31.4L44.6,-30.8L43.6,-28.8Q37.2,-28.2 31,-26.65Q24.8,-25.1 20.8,-20.6Q16.8,-16.1 15.95,-13.25Q15.1,-10.4 15.1,-3.7L14.1,-1.8Q12.9,-0.8 11.2,-0.8Z"></path><path transform="translate(771 200)" d=""></path><path transform="translate(801 200)" d="M59.9,-1.5Q58.6,-1.5 57.3,-3.3Q52.4,-10.7 49.35,-19.15Q46.3,-27.6 42.8,-36Q39.7,-28 36.25,-20Q32.8,-12 28,-4.5Q26.2,-2.4 24.6,-2.4Q22.7,-2.4 21.1,-5.1Q10.5,-33.5 2.9,-58.9Q3.1,-60.4 4,-61.7Q5.2,-62.7 6.9,-62.7L7.5,-62.7L9.5,-61.7Q21.3,-27.3 25,-15.5Q29.9,-23.9 33.15,-32.7Q36.4,-41.5 39.1,-50.5Q40.5,-52.9 42.2,-52.9Q43.9,-52.9 45.9,-50.1Q48.9,-41.3 52.4,-32.6Q55.9,-23.9 59.4,-15.1Q71.2,-37.6 77.1,-63.1Q78.2,-64.1 80,-64.1L80.6,-64.1L82.5,-63.1Q83.6,-61.5 83.6,-59.6L83.5,-58.5Q80.4,-44 74.9,-30.35Q69.4,-16.7 62.7,-3.3Q61.3,-1.5 59.9,-1.5Z"></path><path transform="translate(887 200)" d="M28.1,2.4Q23.1,2.4 19.2,0.7Q16.2,-0.6 12.6,-4Q9,-7.4 6.7,-13.1Q4.5,-18.3 4.5,-23.6Q4.5,-24.1 4.6,-27.15Q4.7,-30.2 6.25,-34.9Q7.8,-39.6 12.15,-44.4Q16.5,-49.2 22.3,-50.3Q26.4,-51 30.2,-51Q31.7,-51 35,-50.75Q38.3,-50.5 42.65,-45.55Q47,-40.6 49.25,-35Q51.5,-29.4 52.1,-23.5L52.1,-23Q52.1,-20.3 49.8,-20Q49.2,-19.9 46.5,-19.9Q38.5,-19.9 12.5,-20.8Q13.3,-16.9 14.75,-14.25Q16.2,-11.6 20.6,-8.2Q24.3,-5.2 28.4,-5.2Q29,-5.2 31.6,-5.45Q34.2,-5.7 37,-7.15Q39.8,-8.6 42.4,-10.5Q44,-12.6 46.3,-12.6L46.7,-12.6L48.6,-11.6Q49.6,-10.2 49.6,-8.4L49.6,-7.8L48.6,-5.9Q42.4,-0.6 37.1,1Q32.8,2.4 28.1,2.4ZM43.3,-27.8L42.2,-31.3Q36.7,-43.3 28.5,-43.3Q27.9,-43.3 25.55,-43Q23.2,-42.7 18.8,-39.65Q14.4,-36.6 12.5,-28.4L43.3,-27.8Z"></path><path transform="translate(944 200)" d="M13,0.2L12.3,0.2Q9.5,0.2 8.2,-2.9Q7,-15.4 7,-33.6Q7,-45.3 7.4,-64.3Q8.1,-67.7 11.2,-67.7L12.3,-67.6L14.2,-66.5L15.1,-63.9L14.5,-43.5Q20.8,-45 25.3,-45.1Q28,-45.1 33.3,-44.2Q38.6,-43.3 42.85,-38.85Q47.1,-34.4 47.8,-31.75Q48.5,-29.1 48.5,-25.6Q48.5,-22.8 47.8,-19.15Q47.1,-15.5 45.9,-12.8Q44.7,-10.1 39.6,-6.1Q34.5,-2.1 25.35,-1.1Q16.2,-0.1 13,0.2ZM21.8,-8.7Q27.1,-8.7 33.2,-10.5Q41,-15.7 41,-25.8Q41,-26 40.9,-27.7Q40.8,-29.4 38.75,-32.3Q36.7,-35.2 33,-36.3Q29.3,-37.4 25.7,-37.4Q20.1,-37.4 14.5,-35.3Q14.5,-28.1 14.9,-21.8Q15.1,-18.2 15.1,-14.5L15,-8.9Q19,-8.7 21.8,-8.7Z"></path></svg>